<svg width="17" height="18" viewBox="0 0 16 15" fill="none" xmlns="http://www.w3.org/2000/svg">
    <g opacity="1">
        <path fill-rule="evenodd" clip-rule="evenodd" d="M2.20291 6.79744C2.20299 6.79736 2.20312 6.79736 2.20319 6.79744L2.2032 6.79744C2.20327 6.79752 2.2034 6.79752 2.20347 6.79744L2.20351 6.7974C2.20352 6.79739 2.20353 6.79737 2.20353 6.79736C2.20353 6.79732 2.20356 6.79729 2.2036 6.79729C2.20361 6.79729 2.20363 6.79728 2.20364 6.79727L7.84838 1.15253C8.04364 0.957272 8.36023 0.957272 8.55549 1.15253C8.75075 1.3478 8.75075 1.66438 8.55549 1.85964L5.32494 5.09018C4.69498 5.72015 5.14115 6.79729 6.03205 6.79729L13.1549 6.79729C13.4311 6.79729 13.6549 7.02115 13.6549 7.29729C13.6549 7.57343 13.4311 7.79729 13.1549 7.79729L5.61726 7.79729C4.72636 7.79729 4.28019 8.87443 4.91015 9.5044L8.1205 12.7147C8.31576 12.91 8.31576 13.2266 8.1205 13.4219C7.92524 13.6171 7.60866 13.6171 7.41339 13.4219L1.8495 7.85796C1.65424 7.66269 1.65424 7.34611 1.8495 7.15085L2.20291 6.79744Z" fill="#292929"></path>
        <path d="M1.8495 7.85796L2.20305 7.5044L1.8495 7.85796ZM7.41339 13.4219L7.76695 13.0683L7.41339 13.4219ZM5.61726 7.79729L5.61726 7.29729L5.61726 7.79729ZM13.1549 7.79729L13.1549 7.29729L13.1549 7.79729ZM13.1549 6.79729L13.1549 6.29729L13.1549 6.79729ZM2.55675 6.44389L2.55675 6.44388L1.84964 7.15099L1.84964 7.15099L2.55675 6.44389ZM1.84996 6.44385L1.84992 6.44389L2.55703 7.15099L2.55706 7.15096L1.84996 6.44385ZM7.49483 0.79898L1.85009 6.44372L2.5572 7.15082L8.20194 1.50609L7.49483 0.79898ZM5.6785 5.44374L8.90904 2.21319L8.20194 1.50609L4.97139 4.73663L5.6785 5.44374ZM6.03205 7.29729L13.1549 7.29729L13.1549 6.29729L6.03205 6.29729L6.03205 7.29729ZM13.1549 7.29729L5.61726 7.29729L5.61726 8.29729L13.1549 8.29729L13.1549 7.29729ZM8.47406 12.3612L5.26371 9.15085L4.5566 9.85795L7.76695 13.0683L8.47406 12.3612ZM1.49595 8.21151L7.05984 13.7754L7.76695 13.0683L2.20305 7.5044L1.49595 8.21151ZM1.84936 6.44388L1.49595 6.7973L2.20305 7.5044L2.55646 7.15099L1.84936 6.44388ZM2.20305 7.5044L1.49595 6.7973C1.10542 7.18782 1.10542 7.82099 1.49595 8.21151L2.20305 7.5044ZM7.76695 13.0683L7.76695 13.0683L7.05984 13.7754C7.45037 14.1659 8.08353 14.1659 8.47406 13.7754L7.76695 13.0683ZM7.76695 13.0683L8.47406 13.7754C8.86458 13.3849 8.86458 12.7517 8.47406 12.3612L7.76695 13.0683ZM5.61726 7.29729C4.28091 7.29729 3.61165 8.913 4.5566 9.85795L5.26371 9.15085C4.94872 8.83586 5.17181 8.29729 5.61726 8.29729L5.61726 7.29729ZM13.1549 7.29729L13.1549 7.29729L13.1549 8.29729C13.7072 8.29729 14.1549 7.84958 14.1549 7.29729L13.1549 7.29729ZM13.1549 7.29729L13.1549 7.29729L14.1549 7.29729C14.1549 6.74501 13.7072 6.29729 13.1549 6.29729L13.1549 7.29729ZM4.97139 4.73663C4.02644 5.68158 4.69569 7.29729 6.03205 7.29729L6.03205 6.29729C5.5866 6.29729 5.36352 5.75872 5.6785 5.44374L4.97139 4.73663ZM8.20194 1.50609L8.20194 1.50609L8.90904 2.21319C9.29957 1.82267 9.29957 1.1895 8.90904 0.79898L8.20194 1.50609ZM8.20194 1.50609L8.90904 0.79898C8.51852 0.408456 7.88535 0.408456 7.49483 0.79898L8.20194 1.50609ZM2.2036 7.29729C2.34058 7.29729 2.46654 7.24148 2.5572 7.15082L1.85009 6.44372C1.94072 6.35309 2.06665 6.29729 2.2036 6.29729L2.2036 7.29729ZM2.70353 6.79736C2.70353 7.07346 2.4797 7.29729 2.2036 7.29729L2.2036 6.29729C1.92742 6.29729 1.70353 6.52118 1.70353 6.79736L2.70353 6.79736ZM2.55706 7.15096C2.65085 7.05718 2.70353 6.92998 2.70353 6.79736L1.70353 6.79736C1.70353 6.66477 1.7562 6.53761 1.84996 6.44385L2.55706 7.15096ZM2.55675 6.44388C2.36141 6.24854 2.0447 6.24854 1.84936 6.44388L2.55646 7.15099C2.36128 7.34618 2.04482 7.34617 1.84964 7.15099L2.55675 6.44388ZM1.84964 7.15099C2.04498 7.34633 2.36169 7.34633 2.55703 7.15099L1.84992 6.44389C2.04511 6.2487 2.36156 6.2487 2.55675 6.44389L1.84964 7.15099Z" fill="#292929"></path>
    </g>
</svg>